<?xml version="1.0" encoding="utf-8"?>
<!-- Generator: Adobe Illustrator 22.0.0, SVG Export Plug-In . SVG Version: 6.00 Build 0)  -->
<svg version="1.1" id="图层_1" xmlns="http://www.w3.org/2000/svg" xmlns:xlink="http://www.w3.org/1999/xlink" x="0px" y="0px"
	 viewBox="0 0 128 128" style="enable-background:new 0 0 128 128;" xml:space="preserve">
<style type="text/css">
	.st0{fill:#DCE775;}
</style>
<g>
	<polygon class="st0" points="82.9,4.9 45.1,4.9 45.1,30.3 57.9,34.4 57.9,27 70.1,27 70.1,52.4 82.9,48.2 	"/>
	<polygon class="st0" points="125,63.3 112.8,27.5 88.8,35.7 89,49.2 96,46.8 99.9,58.3 75.9,66.5 84,77.3 	"/>
	<polygon class="st0" points="86.9,122.2 116.2,98.2 100.1,78.6 87.5,83.5 92.2,89.2 82.8,96.9 66.7,77.3 59.4,88.7 	"/>
	<polygon class="st0" points="17.3,103.7 49.4,123.7 62.9,102.1 54.2,91.8 50.3,98.1 39.9,91.6 53.3,70.1 40.2,66.9 	"/>
	<polygon class="st0" points="16.2,27.1 3,62.6 26.8,71.4 35.2,60.9 28.2,58.3 32.5,46.9 56.3,55.7 56.8,42.2 	"/>
</g>
</svg>
