<?xml version="1.0" encoding="utf-8"?>
<!-- Generator: Adobe Illustrator 24.0.3, SVG Export Plug-In . SVG Version: 6.00 Build 0)  -->
<svg version="1.1" id="图层_1" xmlns="http://www.w3.org/2000/svg" xmlns:xlink="http://www.w3.org/1999/xlink" x="0px" y="0px"
	 viewBox="0 0 92.76 142.75" style="enable-background:new 0 0 92.76 142.75;" xml:space="preserve">
<style type="text/css">
	.st0{fill:#E88BAA;}
</style>
<path class="st0" d="M0,0v142.75h22.78c0,0,0.93-6.98,10.46-7.9c0,0,4.18-1.16,0-5.81c0,0-6.74-12.09,1.86-37.2
	c0,0-4.88-0.93-10.46,7.91c0,0-0.46,3.49-0.46,5.58c0,0-6.28,5.81-6.74-3.95c0,0,1.86-8.83,10-16.97c0,0,3.95-6.74,0.93-16.51
	c0,0-9.76-0.7-13.95-9.3c0,0-6.74-17.67-4.42-25.34c0,0-0.47-3.72,12.32-3.95c0,0,13.95-4.18,24.64,8.14c0,0,17.67,2.09,22.55,8.14
	c4.88,5.81,11.16,8.84,11.16,8.84s1.16,2.09-3.72,1.63c0,0-15.35-10.23-22.32-9.3c0,0-1.63,1.63,0,2.33c0,0,9.3-1.86,22.55,13.02
	c0,0-4.88,2.09-15.11-5.58c0,0-9.07-5.11-10.93-1.86c0,0,4.42,19.76,24.41,34.87c0,0,17.2-4.42,17.2-37.2S75.33,3.26,38.36,3.72V0H0
	z"/>
</svg>
